# xmcd CD database file
#
# Track frame offsets:
#	150
#	21849
#	32970
#	41644
#	57783
#	69492
#	80017
#	99352
#	113718
#	128191
#	135979
#	173781
#
# Disc length: 2557 seconds
#
# Revision: 0
# Processed by: cddbd v1.5.2PL0 Copyright (c) Steve Scherf et al.
# Submitted via: CDex 1.51
#
DISCID=9b09fb0c
DTITLE=Lester Peabody - The Johnny Bonanza Show
DYEAR=2007
DGENRE=Jazz
TTITLE0=Strippin' The Tease
TTITLE1=If I Had You
TTITLE2=Struttin' Down Mainstreet
TTITLE3=Hatchechubbee Stomp
TTITLE4=I'm Fool to Want You
TTITLE5=Kicky
TTITLE6=Come Destroy Me
TTITLE7=Castle Rock
TTITLE8=Lorraine In The Morning
TTITLE9=A Foggy Day
TTITLE10=Waltz For a Fugitive
TTITLE11=Take Half
EXTD=YEAR: 2007
EXTT0=
EXTT1=
EXTT2=
EXTT3=
EXTT4=
EXTT5=
EXTT6=
EXTT7=
EXTT8=
EXTT9=
EXTT10=
EXTT11=
PLAYORDER=
